<?xml version="1.0" encoding="UTF-8"?>
<!DOCTYPE svg PUBLIC "-//W3C//DTD SVG 1.1//EN" "http://www.w3.org/Graphics/SVG/1.1/DTD/svg11.dtd">
<svg xmlns="http://www.w3.org/2000/svg" version="1.1" width="600px" height="150px" style="shape-rendering:geometricPrecision; text-rendering:geometricPrecision; image-rendering:optimizeQuality; fill-rule:evenodd; clip-rule:evenodd" xmlns:xlink="http://www.w3.org/1999/xlink">
<g><path style="opacity:0.964" fill="#fefffe" d="M -0.5,-0.5 C 49.8333,-0.5 100.167,-0.5 150.5,-0.5C 150.334,4.84372 150.501,10.1771 151,15.5C 158.347,10.6947 166.18,9.52807 174.5,12C 171.372,13.7885 170.039,16.4552 170.5,20C 174.919,35.95 172.752,50.7833 164,64.5C 160.006,69.4936 155.673,74.1603 151,78.5C 150.5,102.164 150.333,125.831 150.5,149.5C 100.167,149.5 49.8333,149.5 -0.5,149.5C -0.5,99.5 -0.5,49.5 -0.5,-0.5 Z M 95.5,139.5 C 102.494,128.853 108.994,117.853 115,106.5C 118.029,99.436 120.196,92.1027 121.5,84.5C 121.471,82.9707 120.804,81.804 119.5,81C 109.824,81.2805 100.49,83.2805 91.5,87C 78.6184,92.3547 66.4517,98.8547 55,106.5C 55.7473,104.024 57.0806,101.691 59,99.5C 63.1667,95.3333 67.3333,91.1667 71.5,87C 55.2051,87.9985 38.8718,88.4985 22.5,88.5C 49.8769,83.6575 75.8769,74.8241 100.5,62C 104.956,59.3739 108.956,56.2072 112.5,52.5C 111.747,50.2466 110.414,48.4133 108.5,47C 104.328,43.9399 99.8285,41.4399 95,39.5C 94.6667,39.8333 94.3333,40.1667 94,40.5C 88.5463,38.4766 82.8796,37.4766 77,37.5C 54.1527,39.6133 31.6527,43.6133 9.5,49.5C 41.3791,26.5802 77.0458,15.7469 116.5,17C 125.992,17.9278 134.992,20.4278 143.5,24.5C 146.806,21.1827 150.472,18.3494 154.5,16C 159.008,14.0485 163.674,13.3818 168.5,14C 167.152,15.5741 166.486,17.4075 166.5,19.5C 173.611,42.2635 167.778,60.9301 149,75.5C 136.132,100.878 118.299,122.211 95.5,139.5 Z"/></g>
<g><path style="opacity:0.916" fill="#fefffe" d="M 197.5,60.5 C 216.17,60.3334 234.836,60.5001 253.5,61C 254.833,65 254.833,69 253.5,73C 236.833,73.3333 220.167,73.6667 203.5,74C 201.256,76.3764 200.923,79.0431 202.5,82C 217.167,82.3333 231.833,82.6667 246.5,83C 251.235,84.0681 254.402,86.9014 256,91.5C 256.667,96.8333 256.667,102.167 256,107.5C 254.5,111.667 251.667,114.5 247.5,116C 227.169,116.5 206.836,116.667 186.5,116.5C 186.5,112.5 186.5,108.5 186.5,104.5C 203.837,104.667 221.17,104.5 238.5,104C 242,100.996 242.333,97.6631 239.5,94C 225.5,93.6667 211.5,93.3333 197.5,93C 191.75,92.2472 188.25,89.0806 187,83.5C 185.535,76.4259 186.701,69.9259 190.5,64C 192.925,62.7874 195.259,61.6207 197.5,60.5 Z"/></g>
<g><path style="opacity:0.916" fill="#fefffe" d="M 281.5,60.5 C 295.837,60.3334 310.171,60.5001 324.5,61C 334.156,61.9962 339.99,67.1628 342,76.5C 342.667,89.5 342.667,102.5 342,115.5C 337,116.833 332,116.833 327,115.5C 326.667,103.833 326.333,92.1667 326,80.5C 325.793,77.5774 324.293,75.7441 321.5,75C 309.5,74.3333 297.5,74.3333 285.5,75C 281.847,76.1322 280.013,78.6322 280,82.5C 279.5,93.8284 279.333,105.162 279.5,116.5C 274.5,116.5 269.5,116.5 264.5,116.5C 264.333,102.163 264.5,87.8295 265,73.5C 268.016,65.9199 273.516,61.5866 281.5,60.5 Z"/></g>
<g><path style="opacity:0.927" fill="#fefffe" d="M 368.5,60.5 C 382.504,60.3334 396.504,60.5001 410.5,61C 418.709,61.6786 424.209,65.8453 427,73.5C 427.667,83.8333 427.667,94.1667 427,104.5C 424.982,111.181 420.482,115.014 413.5,116C 397.167,116.667 380.833,116.667 364.5,116C 356.667,114.833 352.167,110.333 351,102.5C 350.333,93.1667 350.333,83.8333 351,74.5C 353.715,65.897 359.548,61.2304 368.5,60.5 Z M 374.5,73.5 C 386.214,73.1395 397.881,73.6395 409.5,75C 411.004,76.4907 411.837,78.324 412,80.5C 412.839,87.5667 412.506,94.5667 411,101.5C 408.649,102.714 406.149,103.548 403.5,104C 394.167,104.667 384.833,104.667 375.5,104C 372.178,103.941 369.344,102.774 367,100.5C 366.333,92.8333 366.333,85.1667 367,77.5C 369.113,75.2667 371.613,73.9334 374.5,73.5 Z"/></g>
<g><path style="opacity:0.917" fill="#fefffe" d="M 454.5,60.5 C 468.504,60.3334 482.504,60.5001 496.5,61C 504.606,61.2881 510.106,65.1215 513,72.5C 513.5,87.1629 513.667,101.83 513.5,116.5C 508.352,117.074 503.518,116.407 499,114.5C 498.814,102.121 498.314,89.7877 497.5,77.5C 496.335,76.4164 495.002,75.5831 493.5,75C 481.5,74.3333 469.5,74.3333 457.5,75C 455.998,75.5831 454.665,76.4164 453.5,77.5C 452.686,90.1212 452.186,102.788 452,115.5C 446.928,116.471 441.762,116.805 436.5,116.5C 436.333,102.496 436.5,88.496 437,74.5C 439.766,65.881 445.599,61.2143 454.5,60.5 Z"/></g>
<g><path style="opacity:0.928" fill="#fefffe" d="M 599.5,72.5 C 599.5,83.5 599.5,94.5 599.5,105.5C 596.747,111.405 592.08,114.905 585.5,116C 569.167,116.667 552.833,116.667 536.5,116C 531.629,115.136 527.796,112.636 525,108.5C 523.06,102.007 522.227,95.3402 522.5,88.5C 521.925,81.166 523.092,74.166 526,67.5C 530.02,63.6134 534.854,61.4467 540.5,61C 554.5,60.3333 568.5,60.3333 582.5,61C 590.508,61.5276 596.175,65.3609 599.5,72.5 Z M 546.5,73.5 C 558.221,73.1128 569.887,73.6128 581.5,75C 582.701,75.9025 583.535,77.0692 584,78.5C 584.667,85.5 584.667,92.5 584,99.5C 581.924,102.312 579.09,103.812 575.5,104C 566.167,104.667 556.833,104.667 547.5,104C 543.682,104.177 540.849,102.677 539,99.5C 538.333,92.1667 538.333,84.8333 539,77.5C 541.113,75.2667 543.613,73.9334 546.5,73.5 Z"/></g>
<g><path style="opacity:0.763" fill="#fefffe" d="M 198.5,149.5 C 194.5,149.5 190.5,149.5 186.5,149.5C 186.201,147.396 186.534,145.396 187.5,143.5C 190.288,146.075 192.955,146.075 195.5,143.5C 192.121,142.312 189.287,140.312 187,137.5C 185.521,130.97 188.188,127.637 195,127.5C 196.766,128.233 198.599,128.567 200.5,128.5C 200.662,130.527 200.495,132.527 200,134.5C 197.534,133.223 195.034,133.223 192.5,134.5C 195.403,136.41 198.236,138.41 201,140.5C 202.073,144.1 201.24,147.1 198.5,149.5 Z"/></g>
<g><path style="opacity:0.765" fill="#fefffe" d="M 328.5,149.5 C 324.5,149.5 320.5,149.5 316.5,149.5C 316.201,147.396 316.534,145.396 317.5,143.5C 320.288,146.075 322.955,146.075 325.5,143.5C 320.893,141.892 317.56,138.892 315.5,134.5C 318.776,128.422 323.776,126.422 330.5,128.5C 330.662,130.527 330.495,132.527 330,134.5C 327.667,133.833 325.333,133.167 323,132.5C 322.833,133 322.667,133.5 322.5,134C 325.665,136.157 328.498,138.657 331,141.5C 331.612,144.611 330.779,147.277 328.5,149.5 Z"/></g>
<g><path style="opacity:0.756" fill="#fefffe" d="M 599.5,128.5 C 599.5,130.167 599.5,131.833 599.5,133.5C 596.881,133.768 594.381,133.435 592,132.5C 591.5,133 591,133.5 590.5,134C 593.194,136.347 596.194,138.18 599.5,139.5C 599.5,142.167 599.5,144.833 599.5,147.5C 598.5,147.833 597.833,148.5 597.5,149.5C 593.5,149.5 589.5,149.5 585.5,149.5C 584.306,147.516 584.306,145.516 585.5,143.5C 588.485,145.742 591.485,145.909 594.5,144C 591.686,142.169 588.852,140.335 586,138.5C 583.904,131.75 586.571,128.083 594,127.5C 595.766,128.233 597.599,128.567 599.5,128.5 Z"/></g>
<g><path style="opacity:0.773" fill="#fefffe" d="M 261.5,149.5 C 259.5,149.5 257.5,149.5 255.5,149.5C 255.731,142.191 253.731,135.525 249.5,129.5C 251.695,128.231 253.861,128.231 256,129.5C 256.561,131.725 257.561,133.725 259,135.5C 259.931,133.541 260.764,131.541 261.5,129.5C 263.5,128.167 265.5,128.167 267.5,129.5C 265.57,133.458 263.737,137.458 262,141.5C 261.503,144.146 261.336,146.813 261.5,149.5 Z"/></g>
<g><path style="opacity:0.727" fill="#fefffe" d="M 391.5,149.5 C 389.5,149.5 387.5,149.5 385.5,149.5C 385.5,144.167 385.5,138.833 385.5,133.5C 383.5,133.5 381.5,133.5 379.5,133.5C 379.5,131.833 379.5,130.167 379.5,128.5C 385.5,128.5 391.5,128.5 397.5,128.5C 397.938,132.908 395.938,134.575 391.5,133.5C 391.5,138.833 391.5,144.167 391.5,149.5 Z"/></g>
<g><path style="opacity:0.76" fill="#fefffe" d="M 460.5,149.5 C 455.833,149.5 451.167,149.5 446.5,149.5C 446.5,142.5 446.5,135.5 446.5,128.5C 450.833,128.5 455.167,128.5 459.5,128.5C 459.5,130.167 459.5,131.833 459.5,133.5C 457.167,133.5 454.833,133.5 452.5,133.5C 452.5,134.5 452.5,135.5 452.5,136.5C 454.5,136.5 456.5,136.5 458.5,136.5C 458.5,138.167 458.5,139.833 458.5,141.5C 456.5,141.5 454.5,141.5 452.5,141.5C 452.5,142.833 452.5,144.167 452.5,145.5C 455.167,145.5 457.833,145.5 460.5,145.5C 460.5,146.833 460.5,148.167 460.5,149.5 Z"/></g>
<g><path style="opacity:0.753" fill="#fefffe" d="M 534.5,149.5 C 532.5,149.5 530.5,149.5 528.5,149.5C 528.665,145.818 528.499,142.152 528,138.5C 526.816,142.192 525.649,145.858 524.5,149.5C 522.833,149.5 521.167,149.5 519.5,149.5C 518.344,146.233 517.177,142.899 516,139.5C 515.502,142.817 515.335,146.15 515.5,149.5C 513.5,149.5 511.5,149.5 509.5,149.5C 509.5,142.5 509.5,135.5 509.5,128.5C 512.187,128.336 514.854,128.503 517.5,129C 519.387,132.659 520.887,136.492 522,140.5C 523.704,136.947 525.204,133.28 526.5,129.5C 529.086,128.52 531.753,128.187 534.5,128.5C 534.5,135.5 534.5,142.5 534.5,149.5 Z"/></g>
</svg>
