<svg version="1.1" id="Layer_1" xmlns="http://www.w3.org/2000/svg" xmlns:xlink="http://www.w3.org/1999/xlink" x="0px" y="0px" style="enable-background:new 0 0 2000 852.78;" xml:space="preserve" viewBox="144.25 204.23 1716.7 430.02">
<style type="text/css">
	.st0{fill:#076596;}
	.st1{fill:#4F504F;}
</style>
<path class="st0" d="M865.71,381.41c3.44,0,5.16,1.72,5.16,5.16v22.96c0,3.44-1.72,5.17-5.16,5.17H736.28  c-5.94,0-10.05,1.1-12.34,3.3c-2.29,2.2-3.44,5.4-3.44,9.61v4.3c0,3.83,1.15,6.84,3.44,9.04c2.3,2.21,6.41,3.3,12.34,3.3H833  c16.07,0,27.55,3.35,34.44,10.04c6.89,6.7,10.33,16.17,10.33,28.42v16.07c0,6.31-0.76,11.96-2.3,16.94  c-1.53,4.98-4.06,9.18-7.6,12.62c-3.54,3.44-8.17,6.08-13.92,7.9c-5.74,1.82-12.82,2.73-21.23,2.73H685.77  c-3.45,0-5.16-1.72-5.16-5.17v-22.96c0-3.45,1.72-5.16,5.16-5.16H821.8c5.93,0,10.09-1.05,12.48-3.16c2.39-2.1,3.59-5.65,3.59-10.62  v-7.75c0-3.82-1.2-6.79-3.59-8.89c-2.39-2.1-6.55-3.16-12.48-3.16h-96.42c-16.08,0-27.55-3.3-34.44-9.9  c-6.89-6.6-10.33-16.21-10.33-28.84v-12.63c0-5.93,0.76-11.33,2.29-16.21c1.53-4.88,4.06-9.04,7.6-12.49  c3.54-3.44,8.19-6.07,13.92-7.89c5.74-1.82,12.82-2.73,21.24-2.73H865.71z"/>
<path class="st0" d="M1054.32,381.41c12.82,0,23.62,1.1,32.43,3.3c8.8,2.2,15.83,5.65,21.09,10.33c5.26,4.69,9.04,10.72,11.34,18.08  c2.29,7.37,3.44,16.22,3.44,26.54v92.99c0,4.21-2.11,6.31-6.32,6.31h-28.12c-4.21,0-6.31-2.1-6.31-6.31v-83.23  c0-5.93-0.39-10.95-1.15-15.07c-0.77-4.11-2.25-7.36-4.45-9.75c-2.2-2.39-5.22-4.11-9.04-5.17c-3.83-1.05-8.8-1.58-14.92-1.58  h-76.34c-6.12,0-11.19,0.53-15.21,1.58c-4.02,1.05-7.22,2.78-9.61,5.17c-2.39,2.39-4.06,5.64-5.02,9.75  c-0.96,4.12-1.44,9.14-1.44,15.07v83.23c0,4.21-2.11,6.31-6.32,6.31h-28.12c-4.4,0-6.6-2.1-6.6-6.31v-92.99  c0-10.32,1.15-19.17,3.45-26.54c2.29-7.36,6.07-13.39,11.33-18.08c5.26-4.68,12.24-8.13,20.95-10.33c8.7-2.2,19.56-3.3,32.57-3.3  H1054.32z"/>
<path class="st0" d="M1299.94,381.41c12.82,0,23.63,1.1,32.43,3.3c8.8,2.2,15.83,5.65,21.1,10.33c5.26,4.69,9.04,10.71,11.33,18.08  c2.3,7.36,3.45,16.22,3.45,26.54v41.33c0,10.33-1.15,19.18-3.45,26.55c-2.29,7.36-6.07,13.39-11.33,18.08  c-5.27,4.69-12.3,8.09-21.1,10.19c-8.8,2.11-19.61,3.16-32.43,3.16h-81.22c-13.01,0-23.87-1.05-32.57-3.16  c-8.71-2.1-15.69-5.5-20.95-10.19c-5.26-4.69-9.04-10.71-11.34-18.08c-2.3-7.37-3.45-16.22-3.45-26.55v-41.33  c0-10.32,1.15-19.18,3.45-26.54c2.3-7.37,6.07-13.4,11.34-18.08c5.26-4.68,12.24-8.13,20.95-10.33c8.7-2.2,19.56-3.3,32.57-3.3  H1299.94z M1191.46,473.81c0,6.13,0.48,11.19,1.43,15.21c0.96,4.02,2.63,7.22,5.03,9.61c2.39,2.39,5.6,4.11,9.61,5.16  c4.02,1.05,9.09,1.57,15.21,1.57h73.18c6.31,0,11.48-0.52,15.5-1.57c4.02-1.05,7.22-2.77,9.61-5.16c2.39-2.39,4.06-5.6,5.02-9.61  c0.96-4.02,1.44-9.09,1.44-15.21v-27.27c0-5.93-0.48-10.9-1.44-14.92c-0.96-4.02-2.63-7.27-5.02-9.76c-2.39-2.48-5.6-4.21-9.61-5.17  c-4.01-0.96-9.18-1.43-15.5-1.43h-73.18c-6.13,0-11.2,0.47-15.21,1.43c-4.01,0.96-7.22,2.68-9.61,5.17  c-2.39,2.48-4.07,5.73-5.03,9.76c-0.95,4.02-1.43,8.99-1.43,14.92V473.81z"/>
<path class="st0" d="M1546.72,381.41c12.82,0,23.63,1.1,32.43,3.3c8.79,2.2,15.83,5.65,21.09,10.33  c5.26,4.69,9.04,10.72,11.34,18.08c2.3,7.37,3.44,16.22,3.44,26.54v92.99c0,4.21-2.11,6.31-6.31,6.31h-28.12  c-4.21,0-6.31-2.1-6.31-6.31v-83.23c0-5.93-0.39-10.95-1.15-15.07c-0.77-4.11-2.25-7.36-4.45-9.75c-2.2-2.39-5.21-4.11-9.04-5.17  c-3.83-1.05-8.8-1.58-14.92-1.58h-76.34c-6.12,0-11.19,0.53-15.21,1.58c-4.02,1.05-7.23,2.78-9.61,5.17  c-2.39,2.39-4.06,5.64-5.02,9.75c-0.96,4.12-1.43,9.14-1.43,15.07v83.23c0,4.21-2.11,6.31-6.31,6.31h-28.12  c-4.41,0-6.6-2.1-6.6-6.31v-92.99c0-10.32,1.15-19.17,3.44-26.54c2.29-7.36,6.07-13.39,11.33-18.08  c5.26-4.68,12.24-8.13,20.95-10.33c8.71-2.2,19.56-3.3,32.57-3.3H1546.72z"/>
<path class="st0" d="M1792.35,381.41c12.82,0,23.63,1.1,32.43,3.3c8.8,2.2,15.83,5.65,21.1,10.33c5.26,4.69,9.04,10.71,11.33,18.08  c2.3,7.36,3.45,16.22,3.45,26.54v41.33c0,10.33-1.15,19.18-3.45,26.55c-2.29,7.36-6.07,13.39-11.33,18.08  c-5.27,4.69-12.3,8.09-21.1,10.19c-8.8,2.11-19.61,3.16-32.43,3.16h-81.22c-13.01,0-23.87-1.05-32.57-3.16  c-8.71-2.1-15.69-5.5-20.95-10.19c-5.26-4.69-9.04-10.71-11.33-18.08c-2.3-7.37-3.45-16.22-3.45-26.55v-41.33  c0-10.32,1.15-19.18,3.45-26.54c2.3-7.37,6.07-13.4,11.33-18.08c5.26-4.68,12.24-8.13,20.95-10.33c8.7-2.2,19.56-3.3,32.57-3.3  H1792.35z M1683.87,473.81c0,6.13,0.48,11.19,1.43,15.21c0.96,4.02,2.63,7.22,5.03,9.61c2.39,2.39,5.59,4.11,9.61,5.16  c4.02,1.05,9.08,1.57,15.21,1.57h73.18c6.31,0,11.48-0.52,15.5-1.57c4.02-1.05,7.22-2.77,9.61-5.16c2.39-2.39,4.06-5.6,5.02-9.61  c0.96-4.02,1.44-9.09,1.44-15.21v-27.27c0-5.93-0.48-10.9-1.44-14.92c-0.96-4.02-2.63-7.27-5.02-9.76c-2.4-2.48-5.6-4.21-9.61-5.17  c-4.02-0.96-9.18-1.43-15.5-1.43h-73.18c-6.13,0-11.2,0.47-15.21,1.43c-4.02,0.96-7.22,2.68-9.61,5.17  c-2.39,2.48-4.07,5.73-5.03,9.76c-0.95,4.02-1.43,8.99-1.43,14.92V473.81z"/>
<path class="st1" d="M680.27,630.99v-12.96c2.35,1.97,4.9,3.45,7.65,4.43c2.76,0.98,5.54,1.48,8.34,1.48c1.65,0,3.08-0.15,4.31-0.45  c1.22-0.29,2.26-0.71,3.08-1.24c0.83-0.52,1.44-1.14,1.84-1.86c0.41-0.72,0.6-1.49,0.6-2.33c0-1.13-0.32-2.14-0.97-3.03  c-0.65-0.89-1.54-1.71-2.65-2.47c-1.12-0.76-2.45-1.49-3.99-2.19c-1.54-0.7-3.2-1.41-4.98-2.14c-4.54-1.89-7.91-4.2-10.14-6.92  c-2.22-2.72-3.34-6.02-3.34-9.87c0-3.02,0.61-5.63,1.83-7.8c1.21-2.17,2.87-3.96,4.96-5.37c2.09-1.4,4.51-2.43,7.27-3.09  c2.75-0.66,5.67-0.99,8.74-0.99c3.02,0,5.7,0.18,8.03,0.55c2.34,0.36,4.49,0.92,6.46,1.68v12.1c-0.97-0.67-2.03-1.26-3.18-1.78  c-1.15-0.52-2.33-0.94-3.54-1.28c-1.21-0.34-2.42-0.59-3.62-0.75c-1.2-0.16-2.33-0.24-3.42-0.24c-1.49,0-2.84,0.14-4.05,0.42  c-1.22,0.29-2.25,0.68-3.08,1.2c-0.84,0.51-1.48,1.13-1.94,1.84c-0.46,0.72-0.69,1.52-0.69,2.41c0,0.97,0.26,1.84,0.76,2.61  c0.51,0.77,1.24,1.5,2.19,2.19c0.94,0.69,2.09,1.36,3.44,2.03c1.35,0.66,2.87,1.34,4.58,2.04c2.31,0.97,4.4,2,6.25,3.1  c1.85,1.09,3.43,2.33,4.76,3.7c1.32,1.37,2.33,2.95,3.03,4.71c0.7,1.77,1.05,3.82,1.05,6.17c0,3.24-0.62,5.96-1.84,8.16  c-1.23,2.2-2.9,3.99-5,5.35c-2.11,1.36-4.56,2.33-7.34,2.93c-2.8,0.59-5.75,0.89-8.85,0.89c-3.19,0-6.22-0.27-9.09-0.81  C684.87,632.87,682.38,632.06,680.27,630.99"/>
<path class="st1" d="M910.81,575.16l-18.91,37.41v20.64h-13.08v-20.4l-18.42-37.65h14.94l9.36,21.65c0.16,0.4,0.6,1.98,1.33,4.74  h0.16c0.35-1.95,0.77-3.47,1.25-4.58l9.52-21.81H910.81z"/>
<path class="st1" d="M1052.32,630.99v-12.96c2.35,1.97,4.9,3.45,7.65,4.43c2.76,0.98,5.53,1.48,8.34,1.48  c1.65,0,3.08-0.15,4.31-0.45c1.23-0.29,2.26-0.71,3.08-1.24c0.82-0.52,1.44-1.14,1.84-1.86c0.4-0.72,0.6-1.49,0.6-2.33  c0-1.13-0.33-2.14-0.97-3.03c-0.65-0.89-1.54-1.71-2.66-2.47c-1.12-0.76-2.45-1.49-3.99-2.19c-1.54-0.7-3.19-1.41-4.98-2.14  c-4.53-1.89-7.91-4.2-10.14-6.92c-2.22-2.72-3.34-6.02-3.34-9.87c0-3.02,0.61-5.63,1.82-7.8c1.21-2.17,2.87-3.96,4.96-5.37  c2.09-1.4,4.51-2.43,7.27-3.09c2.76-0.66,5.67-0.99,8.74-0.99c3.02,0,5.7,0.18,8.04,0.55c2.33,0.36,4.49,0.92,6.46,1.68v12.1  c-0.97-0.67-2.03-1.26-3.18-1.78c-1.15-0.52-2.32-0.94-3.54-1.28c-1.21-0.34-2.42-0.59-3.62-0.75c-1.2-0.16-2.34-0.24-3.42-0.24  c-1.48,0-2.84,0.14-4.05,0.42c-1.22,0.29-2.24,0.68-3.08,1.2c-0.84,0.51-1.48,1.13-1.94,1.84c-0.46,0.72-0.69,1.52-0.69,2.41  c0,0.97,0.25,1.84,0.77,2.61c0.51,0.77,1.24,1.5,2.18,2.19c0.94,0.69,2.09,1.36,3.44,2.03c1.35,0.66,2.87,1.34,4.58,2.04  c2.32,0.97,4.4,2,6.25,3.1c1.85,1.09,3.43,2.33,4.75,3.7c1.32,1.37,2.33,2.95,3.03,4.71c0.71,1.77,1.06,3.82,1.06,6.17  c0,3.24-0.62,5.96-1.85,8.16c-1.23,2.2-2.89,3.99-5,5.35c-2.11,1.36-4.56,2.33-7.35,2.93c-2.79,0.59-5.74,0.89-8.84,0.89  c-3.19,0-6.22-0.27-9.09-0.81C1056.91,632.87,1054.42,632.06,1052.32,630.99"/>
<polygon class="st1" points="1279.85,585.81 1263.3,585.81 1263.3,633.21 1250.18,633.21 1250.18,585.81 1233.71,585.81   1233.71,575.16 1279.85,575.16 "/>
<polygon class="st1" points="1460.11,633.21 1425.29,633.21 1425.29,575.16 1458.78,575.16 1458.78,585.81 1438.38,585.81   1438.38,598.72 1457.36,598.72 1457.36,609.32 1438.38,609.32 1438.38,622.6 1460.11,622.6 "/>
<path class="st1" d="M1673.2,633.21h-12.91v-34.73c0-3.75,0.16-7.9,0.49-12.43h-0.33c-0.67,3.56-1.28,6.13-1.82,7.7l-13.6,39.47  h-10.69l-13.84-39.07c-0.38-1.05-0.99-3.75-1.82-8.1h-0.36c0.35,5.73,0.52,10.75,0.52,15.06v32.1h-11.78v-58.05h19.15l11.86,34.41  c0.95,2.75,1.63,5.52,2.07,8.3h0.24c0.73-3.22,1.5-6.01,2.31-8.38l11.86-34.33h18.66V633.21z"/>
<path class="st1" d="M1821.35,630.99v-12.96c2.35,1.97,4.9,3.45,7.65,4.43c2.76,0.98,5.53,1.48,8.34,1.48  c1.65,0,3.08-0.15,4.31-0.45c1.23-0.29,2.25-0.71,3.08-1.24c0.82-0.52,1.44-1.14,1.84-1.86c0.4-0.72,0.6-1.49,0.6-2.33  c0-1.13-0.32-2.14-0.97-3.03c-0.65-0.89-1.54-1.71-2.65-2.47c-1.12-0.76-2.45-1.49-3.99-2.19c-1.54-0.7-3.2-1.41-4.98-2.14  c-4.53-1.89-7.91-4.2-10.14-6.92c-2.23-2.72-3.34-6.02-3.34-9.87c0-3.02,0.61-5.63,1.82-7.8c1.22-2.17,2.87-3.96,4.96-5.37  c2.09-1.4,4.51-2.43,7.27-3.09c2.76-0.66,5.67-0.99,8.74-0.99c3.02,0,5.7,0.18,8.04,0.55c2.33,0.36,4.49,0.92,6.46,1.68v12.1  c-0.97-0.67-2.03-1.26-3.18-1.78c-1.15-0.52-2.32-0.94-3.54-1.28c-1.21-0.34-2.42-0.59-3.62-0.75c-1.2-0.16-2.34-0.24-3.42-0.24  c-1.48,0-2.83,0.14-4.05,0.42c-1.21,0.29-2.25,0.68-3.08,1.2c-0.84,0.51-1.48,1.13-1.94,1.84c-0.46,0.72-0.69,1.52-0.69,2.41  c0,0.97,0.25,1.84,0.77,2.61c0.51,0.77,1.24,1.5,2.19,2.19c0.94,0.69,2.09,1.36,3.44,2.03c1.34,0.66,2.87,1.34,4.57,2.04  c2.32,0.97,4.4,2,6.25,3.1c1.85,1.09,3.43,2.33,4.75,3.7c1.32,1.37,2.33,2.95,3.03,4.71c0.71,1.77,1.06,3.82,1.06,6.17  c0,3.24-0.62,5.96-1.84,8.16c-1.23,2.2-2.9,3.99-5,5.35c-2.1,1.36-4.56,2.33-7.35,2.93c-2.79,0.59-5.74,0.89-8.84,0.89  c-3.19,0-6.22-0.27-9.09-0.81C1825.94,632.87,1823.45,632.06,1821.35,630.99"/>
<g>
	<path class="st0" d="M632.44,271.66c-0.81-2.87-1.46-5.15-1.7-6.42c-0.31-1.58-0.44-3.05-0.44-4.4c0.01-4.71,1.57-8.25,3.17-10.71   c0.8-1.22,1.59-2.15,2.15-2.74l0.64-0.62l0.11-0.1l7.8-7.86l0,0c-25.88-3.12-47.88-0.95-70.38,14.03l0.26-48.59H144.27v429.77   h429.76V435.56c2.46-4.7,4.07-8.03,4.8-9.6c23.92-20.8,38.94-41.34,47.95-60.56c9.13-19.46,12.05-37.54,12.05-52.9   c0-11.93-1.75-22.24-3.65-30.37C634.24,278.07,633.26,274.54,632.44,271.66z M574.39,422.64c0,0-48.29,108.06-166.01,193.78   c0,0,39.8-57.61,63.21-104.15c10.73-21.33,21.93-61.88,18.14-71.93c0,0-60.07-12.8-203.56,83.48c0,0,22.54-28.2,35.14-41.77   c15.28-16.46,27.28-27.69,27.28-27.69s-102.21,10.9-191.33,8.72c0,0,194.27-16.08,309.72-105.73c0,0-21.68-51.04-129.43-39.66   c-95.84,10.12-169.37,33.39-182.7,39.15c0,0,97.05-77.42,233.02-100.82C498.33,237,557.1,275.34,557.1,275.34   s21.82-35.34,75.86-32.9c0,0-10.57,8.45-7.54,23.85C628.42,281.68,659.51,349.29,574.39,422.64z"/>
</g>
</svg>